<?xml version="1.0" standalone="no"?>
<!DOCTYPE svg PUBLIC "-//W3C//DTD SVG 20010904//EN"
 "http://www.w3.org/TR/2001/REC-SVG-20010904/DTD/svg10.dtd">
<svg version="1.0" xmlns="http://www.w3.org/2000/svg"
 width="304.000000pt" height="166.000000pt" viewBox="0 0 304.000000 166.000000"
 preserveAspectRatio="xMidYMid meet">
<metadata>
Created by potrace 1.16, written by Peter Selinger 2001-2019
</metadata>
<g transform="translate(0.000000,166.000000) scale(0.100000,-0.100000)"
fill="#000000" stroke="none">
<path d="M2370 1640 c-64 -15 -82 -62 -60 -155 10 -46 32 -65 72 -65 33 0 48
-28 48 -89 l0 -37 -116 -13 c-64 -7 -120 -9 -124 -4 -10 11 -19 88 -11 99 3 5
23 17 44 26 l37 18 0 70 c0 116 -23 135 -141 121 -99 -13 -113 -27 -106 -114
6 -84 22 -105 86 -109 l46 -3 0 -60 0 -60 -123 -13 c-68 -8 -130 -11 -138 -8
-11 4 -14 18 -12 53 3 42 6 47 33 55 16 4 36 15 42 25 28 37 8 164 -29 184
-29 16 -162 2 -188 -19 -22 -18 -25 -35 -22 -114 3 -63 27 -88 86 -88 l43 0 6
-47 c3 -27 3 -51 1 -54 -4 -7 -262 -34 -268 -28 -2 2 -6 24 -7 49 -4 44 -3 44
34 53 55 13 71 44 63 115 -11 90 -23 102 -107 102 -80 0 -134 -19 -144 -50 -4
-12 -4 -48 0 -80 8 -71 30 -95 85 -94 37 1 38 1 44 -45 7 -51 -7 -71 -50 -71
-28 0 -40 -16 -47 -64 -4 -22 -17 -50 -29 -62 -14 -13 -228 -100 -543 -219
-749 -283 -880 -336 -864 -346 8 -5 74 -9 147 -9 72 0 132 -4 132 -8 0 -4 -16
-23 -35 -42 -19 -18 -32 -37 -29 -42 3 -4 27 -8 54 -8 38 0 52 -4 60 -19 8
-17 2 -26 -46 -68 -54 -45 -55 -48 -33 -54 13 -4 51 -8 84 -9 122 -4 123 -2
-11 -128 -65 -61 -112 -112 -103 -112 19 0 280 106 909 367 250 104 470 195
488 203 32 13 35 11 107 -39 40 -28 81 -51 90 -51 32 0 131 60 508 308 166
109 185 115 236 74 68 -55 120 -76 191 -76 109 0 199 54 247 148 60 116 23
274 -81 343 -79 53 -109 59 -260 44 -72 -7 -147 -15 -167 -18 l-35 -5 -11 57
c-9 53 -9 57 11 65 66 25 77 32 87 54 16 35 2 133 -22 157 -21 21 -92 25 -159
9z"/>
</g>
</svg>
