<?xml version="1.0" standalone="no"?>
<!DOCTYPE svg PUBLIC "-//W3C//DTD SVG 20010904//EN"
 "http://www.w3.org/TR/2001/REC-SVG-20010904/DTD/svg10.dtd">
<svg version="1.0" xmlns="http://www.w3.org/2000/svg"
 width="512.000000pt" height="512.000000pt" viewBox="0 0 512.000000 512.000000"
 preserveAspectRatio="xMidYMid meet">
<metadata>
Created by potrace 1.16, written by Peter Selinger 2001-2019
</metadata>
<g transform="translate(0.000000,512.000000) scale(0.100000,-0.100000)"
fill="#000000" stroke="none">
<path d="M1963 5100 c-134 -48 -237 -152 -284 -288 -15 -42 -19 -83 -19 -174
l0 -118 -493 0 c-463 0 -497 -1 -550 -19 -137 -47 -241 -151 -288 -289 -16
-48 -19 -84 -19 -276 0 -200 2 -224 19 -250 37 -56 65 -66 184 -66 101 0 107
-1 107 -20 0 -62 262 -3204 271 -3247 26 -131 118 -247 247 -310 l76 -38 1346
0 1346 0 76 38 c129 63 221 179 247 310 9 43 271 3185 271 3247 0 19 6 20 108
20 118 0 146 10 183 66 17 26 19 50 19 250 0 192 -3 228 -19 276 -47 138 -151
242 -288 289 -53 18 -87 19 -550 19 l-493 0 0 118 c0 91 -4 132 -19 174 -47
138 -151 242 -288 289 -53 18 -86 19 -597 18 -501 0 -545 -2 -593 -19z m1117
-307 c56 -34 72 -73 78 -180 l5 -93 -603 0 -603 0 5 94 c7 127 37 175 123 197
17 4 239 7 495 6 459 -2 465 -2 500 -24z m1350 -600 c56 -34 72 -73 78 -180
l5 -93 -1953 0 -1953 0 5 94 c7 127 37 176 123 197 17 4 847 6 1845 6 l1815
-2 35 -22z m-240 -585 c0 -73 -263 -3190 -271 -3209 -17 -43 -64 -81 -111 -90
-56 -11 -2440 -11 -2496 0 -47 9 -94 47 -111 90 -8 19 -271 3136 -271 3209 0
9 333 12 1630 12 1297 0 1630 -3 1630 -12z"/>
<path d="M1576 3301 c-15 -10 -37 -32 -47 -47 -18 -28 -19 -69 -19 -1144 0
-1075 1 -1116 19 -1144 31 -46 69 -66 131 -66 62 0 100 20 131 66 18 28 19 69
19 1144 0 1075 -1 1116 -19 1144 -31 46 -69 66 -131 66 -37 0 -64 -6 -84 -19z"/>
<path d="M2476 3301 c-15 -10 -37 -32 -47 -47 -18 -28 -19 -69 -19 -1144 0
-1075 1 -1116 19 -1144 31 -46 69 -66 131 -66 62 0 100 20 131 66 18 28 19 69
19 1144 0 1075 -1 1116 -19 1144 -31 46 -69 66 -131 66 -37 0 -64 -6 -84 -19z"/>
<path d="M3376 3301 c-15 -10 -37 -32 -47 -47 -18 -28 -19 -69 -19 -1144 0
-1075 1 -1116 19 -1144 31 -46 69 -66 131 -66 62 0 100 20 131 66 18 28 19 69
19 1144 0 1075 -1 1116 -19 1144 -31 46 -69 66 -131 66 -37 0 -64 -6 -84 -19z"/>
</g>
</svg>
