<?xml version="1.0" standalone="no"?>
<!DOCTYPE svg PUBLIC "-//W3C//DTD SVG 20010904//EN"
 "http://www.w3.org/TR/2001/REC-SVG-20010904/DTD/svg10.dtd">
<svg version="1.0" xmlns="http://www.w3.org/2000/svg"
 width="512.000000pt" height="512.000000pt" viewBox="0 0 512.000000 512.000000"
 preserveAspectRatio="xMidYMid meet">
<metadata>
Created by potrace 1.16, written by Peter Selinger 2001-2019
</metadata>
<g transform="translate(0.000000,512.000000) scale(0.100000,-0.100000)"
fill="#000000" stroke="none">
<path d="M1715 5105 c-579 -85 -1104 -427 -1413 -921 -147 -235 -248 -513
-287 -787 -19 -132 -19 -422 0 -554 83 -584 423 -1109 921 -1421 245 -153 544
-259 825 -292 137 -16 460 -8 584 15 246 45 496 139 698 263 l58 36 682 -681
c375 -375 702 -693 726 -708 62 -38 125 -55 211 -55 154 0 267 65 354 203 29
47 46 118 46 197 0 86 -17 149 -55 211 -15 24 -333 351 -708 726 l-681 682 36
58 c124 202 218 452 263 698 23 124 31 447 15 584 -41 348 -183 696 -404 986
-78 103 -258 283 -361 361 -281 213 -607 351 -948 399 -127 18 -438 18 -562 0z
m543 -211 c481 -76 897 -326 1179 -708 182 -245 288 -501 337 -808 20 -126 21
-381 1 -513 -119 -789 -731 -1401 -1520 -1520 -132 -20 -387 -19 -513 1 -481
76 -897 326 -1179 708 -182 245 -288 501 -337 808 -21 129 -21 387 0 516 76
481 326 897 708 1179 240 177 479 280 781 333 133 24 408 26 543 4z m1431
-3188 l134 -135 -66 -71 c-36 -39 -98 -101 -137 -137 l-72 -66 -135 135 -136
136 134 135 c74 74 136 136 139 136 3 1 66 -59 139 -133z m1192 -1205 c81
-125 -10 -291 -160 -291 -29 0 -66 7 -84 16 -18 9 -235 219 -484 467 l-451
450 136 138 137 137 439 -436 c241 -241 451 -457 467 -481z"/>
<path d="M1750 4705 c-116 -20 -231 -52 -343 -95 -399 -154 -743 -498 -897
-897 -79 -204 -110 -371 -110 -593 0 -222 31 -389 110 -593 154 -399 498 -743
897 -897 204 -79 371 -110 593 -110 222 0 389 31 593 110 399 154 743 498 897
897 79 204 110 371 110 593 0 363 -105 679 -320 965 -250 334 -614 551 -1040
621 -105 17 -386 16 -490 -1z m473 -210 c141 -25 254 -62 382 -124 157 -77
271 -160 392 -284 353 -364 479 -873 337 -1365 -32 -111 -108 -271 -181 -381
-73 -111 -231 -272 -341 -351 -48 -34 -141 -88 -207 -121 -200 -97 -381 -139
-605 -139 -224 0 -405 42 -605 139 -157 77 -271 160 -392 284 -353 364 -478
871 -337 1365 33 115 127 305 204 414 79 110 240 268 351 341 165 109 355 186
549 221 105 19 345 19 453 1z"/>
<path d="M1926 4294 c-21 -21 -26 -36 -26 -73 1 -80 29 -99 164 -111 132 -12
216 -32 326 -79 220 -95 396 -263 502 -479 55 -112 83 -142 135 -142 66 0 111
56 100 125 -7 45 -73 177 -134 269 -61 91 -218 248 -309 309 -203 134 -430
207 -644 207 -81 0 -89 -2 -114 -26z"/>
<path d="M3026 3194 c-21 -21 -26 -36 -26 -74 0 -38 5 -53 26 -74 21 -21 36
-26 74 -26 38 0 53 5 74 26 21 21 26 36 26 74 0 38 -5 53 -26 74 -21 21 -36
26 -74 26 -38 0 -53 -5 -74 -26z"/>
</g>
</svg>
