<?xml version="1.0" standalone="no"?>
<!DOCTYPE svg PUBLIC "-//W3C//DTD SVG 20010904//EN"
 "http://www.w3.org/TR/2001/REC-SVG-20010904/DTD/svg10.dtd">
<svg version="1.0" xmlns="http://www.w3.org/2000/svg"
 width="512.000000pt" height="512.000000pt" viewBox="0 0 512.000000 512.000000"
 preserveAspectRatio="xMidYMid meet">
<metadata>
Created by potrace 1.16, written by Peter Selinger 2001-2019
</metadata>
<g transform="translate(0.000000,512.000000) scale(0.100000,-0.100000)"
fill="#F89D13" stroke="none">
<path d="M4363 5099 c-63 -24 -147 -97 -174 -152 -33 -63 -131 -348 -137 -393
-2 -23 1 -58 8 -78 11 -36 8 -44 -156 -399 -91 -199 -172 -367 -178 -373 -6
-6 -45 -16 -86 -23 -107 -17 -209 -68 -279 -139 -85 -87 -132 -188 -162 -345
-14 -75 -52 -119 -134 -156 -230 -104 -406 -329 -447 -570 l-12 -71 -37 0
c-45 0 -27 -73 -144 585 -47 264 -93 501 -101 526 -46 144 -227 226 -374 170
-72 -27 -119 -67 -154 -131 -50 -92 -48 -118 48 -652 47 -262 86 -481 86 -487
0 -7 -51 -11 -154 -11 -151 0 -154 0 -159 23 -3 12 -22 105 -42 207 -39 194
-55 237 -102 282 -55 52 -107 68 -229 68 l-111 0 -7 59 c-6 50 -12 64 -37 85
l-31 26 -286 0 c-167 0 -303 -4 -324 -10 -53 -15 -118 -68 -153 -124 -23 -39
-30 -63 -33 -118 -8 -130 42 -224 145 -274 l58 -29 285 -3 c176 -2 296 1 312
7 38 14 58 51 65 115 l6 56 92 0 c62 0 96 -4 103 -12 5 -7 49 -211 96 -453 47
-242 135 -687 195 -990 l108 -549 -33 -48 c-161 -235 -80 -550 174 -676 68
-33 84 -37 173 -40 119 -5 206 18 289 75 69 48 144 146 166 218 l18 55 356 0
356 0 17 -54 c39 -122 160 -238 290 -277 104 -32 238 -25 330 18 123 58 219
171 252 298 26 102 15 228 -27 308 -13 26 -5 77 124 725 149 748 151 763 111
854 -11 24 -35 61 -53 81 -29 34 -34 47 -40 120 -5 45 -16 111 -25 146 -9 36
-14 79 -11 96 4 17 34 74 69 126 80 120 99 176 105 310 4 93 1 113 -20 176
-14 38 -41 95 -61 125 -21 30 -37 61 -37 69 0 8 70 181 156 385 149 354 158
371 188 382 18 7 44 24 59 40 41 42 205 359 213 410 13 85 0 174 -36 241 -40
75 -83 114 -170 155 -86 41 -215 48 -297 15z m237 -222 c38 -26 60 -69 60
-115 0 -36 -14 -70 -71 -175 -39 -73 -73 -134 -75 -136 -4 -4 -244 99 -244
105 0 2 23 67 50 146 55 155 79 191 139 206 40 10 103 -4 141 -31z m-250 -599
c0 -5 -68 -169 -150 -365 -83 -195 -155 -375 -160 -399 -14 -60 4 -133 47
-195 56 -82 73 -127 73 -199 0 -79 -28 -152 -89 -232 -85 -113 -107 -226 -72
-369 12 -48 21 -94 21 -103 0 -14 -26 -16 -246 -16 l-245 0 -117 51 c-150 65
-195 62 -229 -18 l-13 -33 -176 0 -175 0 7 38 c10 58 58 166 98 221 59 79 133
139 239 193 154 77 221 161 246 310 30 179 113 281 249 308 32 6 81 16 111 22
43 8 62 19 100 56 42 42 66 87 216 413 l168 367 49 -21 c26 -11 48 -24 48 -29z
m-2260 -798 c11 -6 24 -19 30 -30 10 -18 190 -1000 190 -1034 0 -13 -14 -16
-80 -16 -74 0 -80 1 -85 23 -14 57 -175 973 -175 991 1 54 71 92 120 66z
m-1170 -610 l0 -70 -199 0 c-185 0 -200 1 -225 21 -19 15 -26 30 -26 54 0 61
17 65 247 65 l203 0 0 -70z m3178 -696 c51 -35 52 -26 -79 -692 -103 -521
-126 -622 -139 -618 -8 2 -35 12 -60 22 -25 9 -77 19 -115 21 -140 10 -264
-37 -359 -136 -50 -54 -116 -165 -116 -198 0 -10 -79 -13 -360 -13 -298 0
-360 2 -360 14 0 7 -16 45 -35 83 -39 78 -124 167 -193 202 -91 47 -229 64
-315 40 -22 -6 -41 -8 -45 -5 -3 4 -61 286 -128 629 -68 342 -126 632 -129
645 l-5 22 1208 0 c1091 0 1210 -2 1230 -16z m-1933 -1498 c201 -95 196 -366
-8 -451 -45 -19 -137 -20 -181 -1 -47 19 -104 73 -129 120 -33 63 -31 166 6
228 67 114 199 158 312 104z m1629 -10 c77 -45 126 -131 126 -220 0 -84 -73
-187 -156 -222 -19 -8 -60 -14 -92 -14 -137 0 -243 107 -243 245 0 97 52 176
146 222 66 32 153 28 219 -11z"/>
<path d="M3538 3037 c-98 -28 -174 -103 -203 -200 -19 -63 -19 -111 -1 -171
40 -131 149 -209 291 -208 113 1 212 64 261 167 33 70 33 179 0 251 -60 129
-211 199 -348 161z m131 -223 c37 -31 42 -78 11 -116 -57 -74 -175 -4 -140 82
13 31 51 59 82 60 9 0 30 -12 47 -26z"/>
<path d="M2833 1898 c-51 -25 -54 -47 -51 -449 l3 -371 33 -29 c37 -33 77 -37
122 -14 16 8 34 24 40 34 6 13 10 159 10 401 l0 382 -29 29 c-32 31 -84 38
-128 17z"/>
<path d="M2153 1853 c-12 -2 -34 -18 -48 -34 -49 -59 -23 -148 48 -167 106
-29 184 93 108 169 -16 16 -36 29 -44 29 -9 0 -21 2 -29 4 -7 2 -23 1 -35 -1z"/>
<path d="M3553 1845 c-17 -7 -38 -24 -46 -37 -14 -21 -108 -600 -107 -660 0
-36 42 -84 80 -92 34 -6 87 12 108 37 21 25 115 643 105 686 -14 58 -82 91
-140 66z"/>
<path d="M2203 1513 c-32 -6 -73 -59 -73 -94 0 -45 39 -289 49 -308 40 -73
148 -74 186 0 16 30 16 40 -5 178 -13 80 -26 156 -31 168 -14 39 -76 66 -126
56z"/>
</g>
</svg>
